# xmcd CD database file
#
# Track frame offsets:
#	150
#	27713
#	35942
#	66783
#	85052
#	93437
#	107659
#	139009
#	162990
#	174556
#	205149
#	245393
#	256136
#
# Disc length: 3729 seconds
#
# Revision: 1
# Processed by: cddbd v1.5.2PL0 Copyright (c) Steve Scherf et al.
# Submitted via: CDex 1.51
#
DISCID=b20e8f0d
DTITLE=Makoto Ozone - Falling In Love Again
DYEAR=2007
DGENRE=Jazz
TTITLE0=(Just Like) Starting Over
TTITLE1=Improvisation #1
TTITLE2=What Might Have Been
TTITLE3=Martha, My Dear
TTITLE4=Improvisation #6
TTITLE5=Improvisation #3
TTITLE6=Story
TTITLE7=Turn Out The Stars
TTITLE8=Improvisation #4
TTITLE9=Enharmonie
TTITLE10=Laura's Dream
TTITLE11=Improvisation #5
TTITLE12=She
EXTD=YEAR: 2007
EXTT0=
EXTT1=
EXTT2=
EXTT3=
EXTT4=
EXTT5=
EXTT6=
EXTT7=
EXTT8=
EXTT9=
EXTT10=
EXTT11=
EXTT12=
PLAYORDER=
